PathFileType	4	(X/Y/Z)	path1_18_0-549.trc
DataRate	CameraRate	NumFrames	NumMarkers	Units	OrigDataRate	OrigDataStartFrame	OrigNumFrames
30	30	5	22	m	30	343	549
Frame#	Time	Hip			RHip			RKnee			RAnkle			RBigToe			RSmallToe			RHeel			LHip			LKnee			LAnkle			LBigToe			LSmallToe			LHeel			Neck			Head			Nose			RShoulder			RElbow			RWrist			LShoulder			LElbow			LWrist		
		X1	Y1	Z1	X2	Y2	Z2	X3	Y3	Z3	X4	Y4	Z4	X5	Y5	Z5	X6	Y6	Z6	X7	Y7	Z7	X8	Y8	Z8	X9	Y9	Z9	X10	Y10	Z10	X11	Y11	Z11	X12	Y12	Z12	X13	Y13	Z13	X14	Y14	Z14	X15	Y15	Z15	X16	Y16	Z16	X17	Y17	Z17	X18	Y18	Z18	X19	Y19	Z19	X20	Y20	Z20	X21	Y21	Z21	X22	Y22	Z22
344	11.466666666666669	2.5009780332632006	0.828875637279579	0.6160232372206882	2.5044993602146586	0.805821052889362	0.5291171924494877	2.5072530577179157	0.4545856734382799	0.5591505016162263	2.565015249057754	0.10182877771275989	0.5634230419628234	2.3635743178970197	0.024175866973059776	0.5395473816552421	2.401557598044034	0.0230059336034568	0.4805682672878161	2.6133765644220097	0.03466016164575644	0.5609984262715513	2.485401042281444	0.8000957545688143	0.6963424760463606	2.4903886325343967	0.4370124073993554	0.6678930722905646	2.543018856099711	0.11336675424829051	0.6753428018892179	2.3895822312874784	0.017382167868069322	0.67788846307291	2.4221793370873597	0.027115936307464516	0.7351999573825936	2.5873000415215843	0.04020642943478402	0.6727401056229374	2.454701137656134	1.4635183014370599	0.6389199016198851	2.4060115244224796	1.7201640160094878	0.5791409973599692	2.316082558733771	1.5982053782299575	0.6113764729983089	2.515233038898431	1.366210439390372	0.4656397578883841	2.524110186049963	1.0730805108980186	0.4277347330446026	2.499819644887464	0.8362252800239597	0.415475441911516	2.4688011378298818	1.3414147345289864	0.7811211041994118	2.48332813536553	1.0577143714211907	0.8317115891469395	2.4808511084396687	0.8196313399321871	0.8462100743158072
345	11.5	2.4983493041474176	0.8277308605212509	0.6199968798948028	2.5008148582411853	0.8063852394709663	0.5328873591289989	2.4921196661102427	0.45731228541928826	0.5565493488673722	2.5623377610974414	0.10431448112746919	0.5626892526385368	2.3643729497303356	0.02437754185069934	0.5405444712872968	2.4022265417655815	0.024709444596705772	0.48080950427540026	2.612045996525489	0.036186519444131315	0.5625496403990361	2.4829817862903645	0.8000383534180423	0.7006526483042264	2.4887999852908775	0.4378224292558919	0.6750273326427914	2.5478783040892514	0.11086301068780104	0.6778318951749769	2.39039519437477	0.0150603177670871	0.6769687397453542	2.422858528615817	0.026136520166964952	0.7351121570898708	2.5926108310672147	0.03852852215517063	0.6750007921981391	2.450451947269049	1.4622605112663247	0.6429975993216777	2.3999674369955883	1.7203116280536976	0.5814895744049065	2.3120386457045123	1.5964927997138727	0.617512288558531	2.511775892731219	1.3655860847110555	0.46979930903390554	2.525958742441637	1.0733254296699979	0.4361728396331733	2.4981310065689732	0.8358102360958878	0.41900052494887147	2.465964943431734	1.3400719541826496	0.7841053585470866	2.4771444363678095	1.0564934231551815	0.8367705508843652	2.472252607950428	0.8195979020753762	0.8537338776993204
346	11.533333333333331	2.495095929826231	0.8263360443820864	0.6238815302952575	2.4957626367856265	0.8062694035271241	0.5364760833341108	2.4697630799557464	0.46207706093305617	0.552168698597223	2.5558553298680704	0.10906663110601163	0.5603245287485753	2.3647588277974676	0.02433862535605719	0.5405340149805874	2.4019178675446673	0.02652169432360836	0.48072724952691637	2.6079827281255197	0.03944069815589986	0.5628018984086359	2.479949367767228	0.7990443160148049	0.7044510494648315	2.487507461418647	0.43868379937236285	0.6840847114661168	2.553476123015302	0.10713381512110791	0.6788029788710687	2.390732144008411	0.013241421561750134	0.6767310119779308	2.4234567032380725	0.024636143090178683	0.7351199467578903	2.5986239658968624	0.03633790994031081	0.6768984738710416	2.4454741536829623	1.4610555713464117	0.647362248327173	2.394430400083893	1.7184394570053299	0.5869085243681159	2.3074410333612687	1.5945380808740988	0.6243542777489656	2.508090852318533	1.3647367934825507	0.47430702306412026	2.5271092638981103	1.0739430260474372	0.44422669843933205	2.4963399748674906	0.8355439224000979	0.4231004957787432	2.4616915803869115	1.338159071658653	0.7880650642765302	2.469388987049775	1.0547345402812465	0.8417699822766364	2.460754609308516	0.8194468229983314	0.8608967496262222
347	11.566666666666666	2.4908134813346527	0.8248659857489443	0.6275299815124339	2.4892030000145047	0.8056610742667725	0.5396831560074009	2.4408533436405087	0.469099213433248	0.5470012936815366	2.543899792965659	0.11644695311882841	0.555862869512536	2.3636958769528515	0.0241806881031407	0.539904889508445	2.3992735966321743	0.028547271174624828	0.4801187080782522	2.5997337358846933	0.04484405184528979	0.5615373883932838	2.4758746570226187	0.797383687858932	0.7076362772034406	2.4863906725495095	0.43971721233644306	0.6939167561567606	2.5584196218810744	0.10281225324923415	0.6774242450397164	2.39054708355319	0.0122230406113874	0.6774617610402983	2.4240102705244366	0.02275503903193531	0.7353150159565549	2.604075126059985	0.03388965308443464	0.6775418044853682	2.4398563677353877	1.4599876902907851	0.6519846015695936	2.3894007314999683	1.7148203188884112	0.5948942483698842	2.302174316052489	1.5924656032324693	0.6312569460927574	2.5042244525619335	1.3637769179861163	0.47899642856959446	2.526796469425629	1.0749708968618232	0.450744722387584	2.4944825400903503	0.83567756181685	0.4275919922350567	2.4563921363973513	1.3358335137806907	0.7926276545535498	2.4596779462981786	1.0524459934089618	0.8463362945385468	2.445852000356285	0.8190558704748477	0.8670937535681154
348	11.6	2.4850132204205084	0.8235131849770249	0.6307613460467792	2.4811834953058045	0.8049587909395601	0.5424068821015118	2.4076470345530763	0.4779044289487965	0.5425920644300855	2.525596263501202	0.12590564205984459	0.5497094244931386	2.3594728602225605	0.024316083639076124	0.5391905654492432	2.3923347266285897	0.030973828067873	0.47885362110103663	2.585980571813308	0.05219885968274775	0.5591901407597257	2.4703792157829345	0.7955559484272028	0.7102523525082659	2.4853089029708473	0.4411129581409871	0.7028262408517467	2.561774808698372	0.09875361413172014	0.674208991547937	2.390060449209928	0.011804875551959285	0.6790421350017264	2.424580915230634	0.020771514669590693	0.7357250901829466	2.6077753656062495	0.03166680802636947	0.6764036706441974	2.43373500609478	1.4590640788378926	0.6567681137718171	2.38438893838079	1.710297861662065	0.604489022196027	2.2961683507843307	1.590404891881232	0.6374957012494366	2.500099635510325	1.3628413845475755	0.48363570337924167	2.524964370223716	1.0763308699951837	0.455399914916945	2.4928799429755024	0.8363323881840136	0.4325388724312456	2.450463649063375	1.3334506493071432	0.797711049092727	2.4478592976487428	1.0498437457956313	0.8501765413072659	2.4271322268125606	0.8186372060860361	0.871738101021972
